# xmcd
#
# Track frame offsets:
# 150
# 13415
# 28588
# 44475
# 54539
# 64088
# 80155
# 95254
# 114371
# 130604
# 150895
# 164599
# 178299
# 195249
# 213910
# 228149
# 250307
# 264728
# 279335
#
# Disc length: 3973 seconds
#
#
# Revision: 1
# Processed by: cddbd v1.5.2PL0 Copyright (c) Steve Scherf et al.
# Submitted via: FreeRIP 2.945 
#
DISCID=010f8313
DTITLE=Leo Magalhães - O Locutor
DYEAR=2008
DGENRE=A Cappella
TTITLE0=O Locutor
TTITLE1=Fui homem Demais
TTITLE2=Que seja Bem Vinda
TTITLE3=A Carta
TTITLE4=Mensagem Pra Ela
TTITLE5=Nao e Amor
TTITLE6=So pra Cumprir Tabela
TTITLE7=Amor de Novela
TTITLE8=Foi Voce Que Nao Quis
TTITLE9=O que e que ha
TTITLE10=Quero ter Voce
TTITLE11=Amor Que Nunca Vai morrer
TTITLE12=Foi Deus que Mandou A Chuva
TTITLE13=Amore Mortais
TTITLE14=DEUS
TTITLE15=Eu Grito Que Te Amo
TTITLE16=Nao Tenha do de Mim
TTITLE17=Cara Errado
TTITLE18=Pare
EXTD=Rafael - Manaus - starfox2002@hotmail.com
EXTT0=
EXTT1=
EXTT2=
EXTT3=
EXTT4=
EXTT5=
EXTT6=
EXTT7=
EXTT8=
EXTT9=
EXTT10=
EXTT11=
EXTT12=
EXTT13=
EXTT14=
EXTT15=
EXTT16=
EXTT17=
EXTT18=
PLAYORDER=
